# xmcd CD database file
# Copyright (C) 1993-1998 Ti Kan
#
# Track frame offsets:
#	180
#	12467
#	24579
#	46426
#	58498
#	75354
#	87975
#	102632
#	119058
#	132880
#	147636
#	158477
#	172325
#
# Disc length: 2546 seconds
#
# Revision: 1
# Processed by: cddbd v1.4b41PL1 Copyright (c) Steve Scherf et al.
# Submitted via: CDValet v3.31 - Copyright (c) 1997 Greg Leichner
#
DISCID=bd09f00d
DTITLE=Blues Broers - Sharp Street
DYEAR=1900
DGENRE=
TTITLE0=My Automobile
TTITLE1=Graveyard Train
TTITLE2=Dolby Mae
TTITLE3=No-one's going to take me lying down
TTITLE4=I'm a Wildcard
TTITLE5=Glove
TTITLE6=Blue Dolphin
TTITLE7=Electric Train
TTITLE8=Nothing on the Blues
TTITLE9=Submarine
TTITLE10=Can't come in the Door
TTITLE11=Hell No
TTITLE12=Magic Alice
EXTD=
EXTT0=
EXTT1=
EXTT2=
EXTT3=
EXTT4=
EXTT5=
EXTT6=
EXTT7=
EXTT8=
EXTT9=
EXTT10=
EXTT11=
EXTT12=
PLAYORDER=
